<svg xmlns="http://www.w3.org/2000/svg" width="40" height="40" viewBox="0 0 24 24"><path fill="#888888" d="M12 2C6.48 2 2 6.48 2 12s4.48 10 10 10s10-4.48 10-10S17.52 2 12 2m-1 17.93c-3.94-.49-7-3.85-7-7.93c0-.62.08-1.21.21-1.79L7.8 12.8V14h.1c.6 0 1.1-.5 1.1-1.1V9.8c0-.6-.5-1.1-1.1-1.1H6.7c-.6 0-1.1.5-1.1 1.1v.3c0 .6-.5 1.1-1.1 1.1c-.6 0-1.1-.5-1.1-1.1v-.9c0-1.21.99-2.2 2.2-2.2h1.4c1.21 0 2.2.99 2.2 2.2v3.6c0 1.21-.99 2.2-2.2 2.2m9.1-5.5H16v1.1c0 .6-.5 1.1-1.1 1.1s-1.1-.5-1.1-1.1V9.8c0-1.21.99-2.2 2.2-2.2h1.4c1.21 0 2.2.99 2.2 2.2v.9c0 .6-.5 1.1-1.1 1.1c-.6 0-1.1-.5-1.1-1.1m-3.1 2.2h-1.4c-1.21 0-2.2-.99-2.2-2.2v-3.6c0-1.21.99-2.2 2.2-2.2h1.4c1.21 0 2.2.99 2.2 2.2v3.6c0 1.21-.99 2.2-2.2 2.2Z"/></svg>